<svg xmlns="http://www.w3.org/2000/svg" viewBox="0 0 1024 1024" width="1024" height="1024">
  <defs>
    <linearGradient id="bg" x1="0%" y1="0%" x2="0%" y2="100%">
      <stop offset="0%" style="stop-color:#1e1e2e"/>
      <stop offset="100%" style="stop-color:#181825"/>
    </linearGradient>
    <linearGradient id="titlebar" x1="0%" y1="0%" x2="0%" y2="100%">
      <stop offset="0%" style="stop-color:#313244"/>
      <stop offset="100%" style="stop-color:#282838"/>
    </linearGradient>
  </defs>
  <!-- Rounded terminal window -->
  <rect x="64" y="64" width="896" height="896" rx="80" ry="80" fill="url(#bg)" stroke="#45475a" stroke-width="4"/>
  <!-- Title bar -->
  <rect x="64" y="64" width="896" height="120" rx="80" ry="80" fill="url(#titlebar)"/>
  <rect x="64" y="144" width="896" height="40" fill="url(#titlebar)"/>
  <!-- Traffic lights -->
  <circle cx="148" cy="124" r="24" fill="#f38ba8"/>
  <circle cx="224" cy="124" r="24" fill="#f9e2af"/>
  <circle cx="300" cy="124" r="24" fill="#a6e3a1"/>
  <!-- Log lines -->
  <rect x="140" y="260" width="680" height="28" rx="6" fill="#a6e3a1" opacity="0.9"/>
  <rect x="140" y="310" width="540" height="28" rx="6" fill="#89b4fa" opacity="0.7"/>
  <rect x="140" y="360" width="740" height="28" rx="6" fill="#f9e2af" opacity="0.8"/>
  <rect x="140" y="410" width="460" height="28" rx="6" fill="#89b4fa" opacity="0.7"/>
  <rect x="140" y="460" width="820" height="28" rx="6" fill="#f38ba8" opacity="0.9"/>
  <rect x="140" y="510" width="600" height="28" rx="6" fill="#a6e3a1" opacity="0.9"/>
  <rect x="140" y="560" width="500" height="28" rx="6" fill="#89b4fa" opacity="0.7"/>
  <rect x="140" y="610" width="700" height="28" rx="6" fill="#f9e2af" opacity="0.8"/>
  <rect x="140" y="660" width="380" height="28" rx="6" fill="#a6e3a1" opacity="0.9"/>
  <rect x="140" y="710" width="550" height="28" rx="6" fill="#89b4fa" opacity="0.7"/>
  <!-- LV badge -->
  <circle cx="830" cy="830" r="130" fill="#89b4fa" opacity="0.95"/>
  <text x="830" y="878" text-anchor="middle" font-family="monospace" font-size="130" font-weight="bold" fill="#1e1e2e">LV</text>
</svg>
